<svg width="256" height="256" viewBox="0 0 256 256" xmlns="http://www.w3.org/2000/svg">
  <defs>
    <linearGradient id="grad1" x1="0%" y1="0%" x2="100%" y2="100%">
      <stop offset="0%" style="stop-color:#4a90e2;stop-opacity:1" />
      <stop offset="100%" style="stop-color:#357abd;stop-opacity:1" />
    </linearGradient>
    <linearGradient id="grad2" x1="0%" y1="0%" x2="100%" y2="100%">
      <stop offset="0%" style="stop-color:#ffffff;stop-opacity:1" />
      <stop offset="100%" style="stop-color:#f0f0f0;stop-opacity:1" />
    </linearGradient>
  </defs>

  <!-- Background circle -->
  <circle cx="128" cy="128" r="120" fill="url(#grad1)" stroke="#2c5aa0" stroke-width="3"/>

  <!-- Book/Document icon -->
  <rect x="64" y="64" width="128" height="128" rx="8" ry="8" fill="url(#grad2)" stroke="#d0d0d0" stroke-width="2"/>

  <!-- Pages effect -->
  <rect x="68" y="68" width="120" height="120" rx="6" ry="6" fill="none" stroke="#e0e0e0" stroke-width="1"/>
  <rect x="72" y="72" width="112" height="112" rx="4" ry="4" fill="none" stroke="#e8e8e8" stroke-width="1"/>

  <!-- Text lines -->
  <line x1="88" y1="96" x2="168" y2="96" stroke="#666" stroke-width="2" stroke-linecap="round"/>
  <line x1="88" y1="112" x2="160" y2="112" stroke="#666" stroke-width="2" stroke-linecap="round"/>
  <line x1="88" y1="128" x2="172" y2="128" stroke="#666" stroke-width="2" stroke-linecap="round"/>
  <line x1="88" y1="144" x2="156" y2="144" stroke="#666" stroke-width="2" stroke-linecap="round"/>
  <line x1="88" y1="160" x2="164" y2="160" stroke="#666" stroke-width="2" stroke-linecap="round"/>

  <!-- Pen/Writing tool -->
  <g transform="translate(140, 140) rotate(45)">
    <rect x="0" y="0" width="32" height="4" fill="#8b4513" rx="2"/>
    <rect x="32" y="0" width="8" height="4" fill="#c0c0c0" rx="2"/>
    <polygon points="40,0 44,2 40,4" fill="#ffd700"/>
    <circle cx="44" cy="2" r="1" fill="#ff4444"/>
  </g>

  <!-- Subtle highlight -->
  <ellipse cx="100" cy="90" rx="20" ry="8" fill="rgba(255,255,255,0.3)" transform="rotate(-20 100 90)"/>
</svg>
